<svg width="64" height="64" viewBox="0 0 64 64" fill="none" xmlns="http://www.w3.org/2000/svg">
<path fill-rule="evenodd" clip-rule="evenodd" d="M32.01 56.021C27.2633 56.021 22.6231 54.6134 18.6763 51.9763C14.7296 49.3391 11.6534 45.5908 9.83691 41.2054C8.02041 36.82 7.54513 31.9944 8.47117 27.3388C9.39722 22.6833 11.683 18.4069 15.0395 15.0504C18.3959 11.694 22.6723 9.40821 27.3279 8.48216C31.9834 7.55611 36.809 8.0314 41.1944 9.8479C45.5798 11.6644 49.3281 14.7405 51.9653 18.6873C54.6024 22.6341 56.01 27.2743 56.01 32.021C56.01 38.3862 53.4815 44.4907 48.9806 48.9916C44.4797 53.4924 38.3752 56.021 32.01 56.021ZM32.01 12.0201C28.0542 12.0202 24.1873 13.1934 20.8983 15.3912C17.6092 17.589 15.0458 20.7127 13.532 24.3674C12.0183 28.0221 11.6223 32.0436 12.3941 35.9234C13.1659 39.8031 15.0709 43.3669 17.8681 46.164C20.6653 48.9611 24.2291 50.8659 28.1089 51.6376C31.9886 52.4093 36.0101 52.0132 39.6648 50.4994C43.3194 48.9855 46.4431 46.422 48.6408 43.1329C50.8385 39.8437 52.0115 35.9768 52.0115 32.021C52.0115 26.7164 49.9043 21.6292 46.1534 17.8783C42.4025 14.1274 37.3152 12.0201 32.0106 12.0201H32.01ZM34.83 32.0209L42.4141 39.605C42.6016 39.7905 42.7506 40.0112 42.8525 40.2545C42.9544 40.4978 43.0072 40.7588 43.0079 41.0225C43.0086 41.2863 42.9571 41.5476 42.8565 41.7914C42.7559 42.0352 42.6081 42.2567 42.4216 42.4432C42.2351 42.6297 42.0136 42.7775 41.7698 42.8781C41.526 42.9787 41.2647 43.0301 41.0009 43.0294C40.7372 43.0287 40.4762 42.9759 40.2329 42.874C39.9896 42.7721 39.7689 42.6231 39.5834 42.4356L31.9994 34.8515L24.4262 42.4246C24.049 42.7909 23.5428 42.9941 23.0171 42.9903C22.4913 42.9864 21.9881 42.7758 21.6164 42.404C21.2446 42.0321 21.0341 41.5289 21.0303 41.0032C21.0266 40.4774 21.2298 39.9712 21.5962 39.5941L29.1693 32.021L21.5672 24.4188C21.2024 24.0414 21.0004 23.5357 21.0049 23.0108C21.0093 22.4859 21.2198 21.9838 21.591 21.6126C21.9622 21.2414 22.4643 21.0309 22.9893 21.0265C23.5142 21.022 24.0198 21.224 24.3972 21.5888L31.9994 29.1908L39.6123 21.5778C39.7982 21.3919 40.0188 21.2445 40.2616 21.1439C40.5045 21.0433 40.7647 20.9916 41.0276 20.9916C41.2904 20.9916 41.5507 21.0433 41.7935 21.1439C42.0364 21.2445 42.257 21.3919 42.4429 21.5778C42.6287 21.7636 42.7762 21.9843 42.8768 22.2271C42.9773 22.4699 43.0291 22.7302 43.0291 22.993C43.0291 23.2559 42.9774 23.5161 42.8768 23.759C42.7762 24.0018 42.6288 24.2224 42.4429 24.4083L34.83 32.0209Z" fill="white"/>
</svg>
