<svg width="159" height="64" viewBox="0 0 159 64" fill="none" xmlns="http://www.w3.org/2000/svg">
<path fill-rule="evenodd" clip-rule="evenodd" d="M0 0.00010745H16.4104V63.1729H0V0.00010745Z" fill="white"/>
<path fill-rule="evenodd" clip-rule="evenodd" d="M51.4088 0.00010745L47.6081 29.5124L45.2569 13.4639C44.5714 8.31296 43.9159 3.8247 43.2904 0.00010745H22.0143V63.1729H36.3879L36.4396 21.4613L42.4891 63.1729H52.727L58.4663 20.5328L58.518 63.1729H72.8461V0.00010745H51.4088Z" fill="white"/>
<path fill-rule="evenodd" clip-rule="evenodd" d="M98.5091 11.3691C99.1575 11.7444 99.5732 12.3369 99.7541 13.1402C99.935 13.9457 100.027 15.7757 100.027 18.6314V43.122C100.027 47.328 99.7541 49.9035 99.2092 50.8505C98.6642 51.7997 97.2117 52.2722 94.8533 52.2722V10.8046C96.6408 10.8046 97.8609 10.9928 98.5091 11.3691ZM98.3396 63.1729C102.271 63.1729 105.213 62.9589 107.167 62.5298C109.12 62.1017 110.76 61.3479 112.09 60.2706C113.417 59.1932 114.348 57.7003 114.882 55.7895C115.416 53.882 115.733 50.0946 115.733 44.4329V22.2469C115.733 16.2719 115.5 12.2654 115.136 10.2265C114.771 8.18868 113.86 6.33795 112.401 4.6754C110.943 3.01285 108.813 1.81867 106.013 1.09182C103.215 0.364975 98.6446 0 90.702 0H78.4582V63.1728H98.3396V63.1729Z" fill="white"/>
<path fill-rule="evenodd" clip-rule="evenodd" d="M142.666 47.8439C142.666 50.9012 142.514 52.8326 142.211 53.6359C141.907 54.4403 140.586 54.8446 139.584 54.8446C138.607 54.8446 137.956 54.4569 137.625 53.6783C137.295 52.9008 137.131 51.1257 137.131 48.3506V31.6558C137.131 28.7773 137.276 26.9835 137.567 26.269C137.856 25.5577 138.489 25.1999 139.465 25.1999C140.466 25.1999 141.809 25.6063 142.152 26.4231C142.494 27.2399 142.666 28.9841 142.666 31.6537V47.8439ZM121.323 0.00010745V63.1729H136.097L137.119 59.1478C138.455 60.7659 139.928 61.9797 141.54 62.7882C143.151 63.5967 145.557 64 147.417 64C150.011 64 152.251 63.3186 154.138 61.958C156.023 60.5963 157.223 58.9865 157.735 57.1316C158.245 55.2757 158.501 52.4561 158.501 48.6679V30.9444C158.501 27.1303 158.415 24.6406 158.245 23.4733C158.074 22.306 157.571 21.1128 156.734 19.8938C155.895 18.6759 154.678 17.7288 153.08 17.0536C151.482 16.3775 149.599 16.0404 147.425 16.0404C145.539 16.0404 143.122 16.4157 141.511 17.1601C139.9 17.9046 138.441 19.0346 137.132 20.5493V0.00010745H121.323Z" fill="white"/>
</svg>
