<svg width="64" height="64" viewBox="0 0 64 64" fill="none" xmlns="http://www.w3.org/2000/svg">
<path fill-rule="evenodd" clip-rule="evenodd" d="M18.8913 12.2188L54.8874 30.2152C55.2194 30.3814 55.4987 30.6367 55.6938 30.9526C55.889 31.2685 55.9924 31.6324 55.9924 32.0037C55.9924 32.3751 55.889 32.739 55.6938 33.0549C55.4987 33.3708 55.2194 33.6261 54.8874 33.7923L18.8913 51.7891C18.5864 51.9415 18.2476 52.0134 17.9071 51.998C17.5665 51.9827 17.2356 51.8805 16.9456 51.7013C16.6557 51.5221 16.4163 51.2717 16.2503 50.974C16.0844 50.6763 15.9972 50.3411 15.9972 50.0002V14.0073C15.9973 13.6665 16.0845 13.3313 16.2505 13.0336C16.4165 12.736 16.6559 12.4856 16.9458 12.3065C17.2357 12.1273 17.5667 12.0252 17.9072 12.0098C18.2476 11.9945 18.5864 12.0664 18.8913 12.2188V12.2188Z" fill="white"/>
</svg>
