<svg width="64" height="64" viewBox="0 0 64 64" fill="none" xmlns="http://www.w3.org/2000/svg">
<path fill-rule="evenodd" clip-rule="evenodd" d="M32.01 56.021C27.2632 56.021 22.6231 54.6134 18.6763 51.9763C14.7295 49.3391 11.6534 45.5908 9.83688 41.2054C8.02038 36.82 7.5451 31.9944 8.47114 27.3388C9.39719 22.6833 11.683 18.4069 15.0394 15.0504C18.3959 11.694 22.6723 9.40821 27.3278 8.48216C31.9834 7.55611 36.809 8.0314 41.1944 9.8479C45.5798 11.6644 49.3281 14.7405 51.9653 18.6873C54.6024 22.6341 56.01 27.2743 56.01 32.021C56.01 38.3862 53.4814 44.4907 48.9806 48.9916C44.4797 53.4924 38.3752 56.021 32.01 56.021V56.021ZM32.01 12.0201C28.0542 12.0202 24.1873 13.1933 20.8982 15.3911C17.6092 17.5889 15.0457 20.7126 13.5319 24.3673C12.0182 28.022 11.6222 32.0435 12.394 35.9233C13.1658 39.8031 15.0707 43.3668 17.8679 46.164C20.6651 48.9611 24.2289 50.8659 28.1087 51.6376C31.9885 52.4093 36.01 52.0132 39.6646 50.4994C43.3193 48.9855 46.443 46.422 48.6407 43.1329C50.8384 39.8437 52.0114 35.9768 52.0114 32.021C52.0114 29.3944 51.494 26.7935 50.4889 24.3669C49.4837 21.9402 48.0104 19.7353 46.1531 17.8781C44.2958 16.0208 42.0908 14.5476 39.6642 13.5424C37.2375 12.5373 34.6366 12.02 32.01 12.0201V12.0201ZM17.01 32.021C17.01 31.4906 17.2207 30.9819 17.5958 30.6068C17.9709 30.2317 18.4796 30.021 19.01 30.021H45.01C45.5404 30.021 46.0491 30.2317 46.4242 30.6068C46.7993 30.9819 47.01 31.4906 47.01 32.021C47.01 32.5514 46.7993 33.0601 46.4242 33.4352C46.0491 33.8103 45.5404 34.021 45.01 34.021H19.01C18.4796 34.021 17.9709 33.8103 17.5958 33.4352C17.2207 33.0601 17.01 32.5514 17.01 32.021Z" fill="white"/>
</svg>
