<svg width="80" height="64" viewBox="0 0 80 64" fill="none" xmlns="http://www.w3.org/2000/svg">
<path fill-rule="evenodd" clip-rule="evenodd" d="M33.4079 43.4299C33.2222 43.6158 33.0017 43.7633 32.759 43.8639C32.5163 43.9646 32.2561 44.0163 31.9934 44.0163C31.7307 44.0163 31.4705 43.9646 31.2278 43.8639C30.9851 43.7633 30.7646 43.6158 30.5789 43.4299L15.5744 28.4177C15.3845 28.2329 15.2332 28.0122 15.1293 27.7684C15.0254 27.5246 14.971 27.2626 14.9692 26.9976C14.9674 26.7326 15.0182 26.4699 15.1188 26.2247C15.2193 25.9796 15.3676 25.7568 15.5549 25.5694C15.7423 25.382 15.965 25.2336 16.2101 25.133C16.4553 25.0323 16.718 24.9814 16.983 24.9831C17.2479 24.9848 17.51 25.0391 17.7538 25.1429C17.9976 25.2467 18.2184 25.3979 18.4033 25.5877L31.9933 39.1845L45.5833 25.5877C45.7681 25.3976 45.9889 25.2461 46.2329 25.142C46.4768 25.0379 46.7389 24.9834 47.0041 24.9815C47.2693 24.9796 47.5322 25.0305 47.7776 25.1311C48.0229 25.2318 48.2458 25.3802 48.4333 25.5678C48.6208 25.7553 48.7691 25.9782 48.8697 26.2236C48.9703 26.469 49.021 26.7319 49.0191 26.9971C49.0172 27.2623 48.9625 27.5245 48.8584 27.7683C48.7542 28.0122 48.6026 28.233 48.4124 28.4177L33.4079 43.4299Z" fill="white"/>
</svg>
