<svg width="65" height="65" viewBox="0 0 65 65" fill="none" xmlns="http://www.w3.org/2000/svg">
<path fill-rule="evenodd" clip-rule="evenodd" d="M11.7425 4.23339L15.8242 0.868015L15.8256 0.86792C15.8256 0.86792 20.2356 7.80472 20.3072 7.6349C22.6727 2.0137 30.0853 -0.00857127 32.4589 3.97226C30.8315 4.23552 29.4269 5.12325 29.1437 8.24301C61.4982 2.60022 72.8777 36.5049 56.7832 53.7819C45.7439 65.8302 24.4468 69.5917 9.02162 57.292C-0.426823 49.4369 -5.933 26.732 12.8472 14.3739C9.90105 14.1415 7.62041 14.4052 3.92907 15.2666C4.38302 12.7654 10.2853 6.39639 17.2942 9.03089L11.7425 4.23339ZM11.9751 47.7711L14.1656 47.7996L14.1657 47.799C15.3704 47.8147 17.2153 47.8377 18.2653 47.8501L20.1745 47.8728L20.0753 38.5929L20.8692 38.6473C21.4607 38.6878 21.6946 38.7447 21.7865 38.8704C21.8543 38.9629 23.0901 41.0266 24.5326 43.4559L27.1554 47.8729H31.6739C34.1591 47.8729 36.1924 47.85 36.1924 47.822C36.1924 47.7769 30.8644 38.6007 30.5271 38.0648C30.4022 37.8662 30.4379 37.8291 31.2055 37.3601C32.4056 36.6267 33.3612 35.586 34.0243 34.3362H36.2117L39.6929 34.2943L39.6931 34.2936C39.6931 38.0458 39.6932 41.4603 39.6933 44.8658L39.6936 54.3532L43.7535 54.3951H47.6457V34.2665H51.1903L54.9655 34.3294L54.8924 26.5628C54.8924 26.5628 49.6653 26.6133 43.5968 26.5851L34.5666 26.5431C34.468 26.2786 34.3528 26.0109 34.2185 25.7302C33.0308 23.2455 30.8755 21.4701 28.0521 20.6509C26.3123 20.1461 25.7105 20.1118 18.583 20.1118H11.9751V47.7711ZM26.8178 29.6539C26.7142 31.0941 25.7688 31.9801 23.9199 32.3691C23.5498 32.4469 22.5494 32.5409 21.6966 32.5778L20.1461 32.6448V30.3314C20.1461 29.0589 20.1173 27.6124 20.0822 27.1168L20.0182 26.2157L21.3865 26.2187C23.9789 26.2245 25.1627 26.5107 26.0109 27.3365C26.6508 27.9596 26.8901 28.6468 26.8178 29.6539Z" fill="white"/>
</svg>
