<svg width="67" height="64" viewBox="0 0 67 64" fill="none" xmlns="http://www.w3.org/2000/svg">
<path d="M21.6686 16.1563C15.4483 12.5288 16.0366 4.6349 22.6272 1.58256C34.5696 -1.40322 35.9379 7.88199 32.9824 15.4852C29.992 26.5069 41.2544 26.3021 42.091 20.0872C43.7389 11.6703 50.9568 7.88382 56.5687 12.6088C62.3278 18.1563 59.8023 29.3316 48.4192 28.2372C41.0912 27.531 39.4812 37.1903 48.8028 37.9208C63.5356 38.7961 68.2272 48.0543 62.9929 54.3163C55.6814 61.242 45.7623 52.2871 42.187 45.3997C39.0785 41.145 34.2688 45.4502 36.0508 48.372C41.9858 57.2702 37.3869 62.6481 31.0652 62.3701C24.9536 61.9816 21.4834 58.2284 25.0245 49.0444C26.8059 43.3384 21.0953 42.0104 17.4501 46.553C12.0978 55.5176 4.25418 52.8067 1.91772 48.4684C0.435389 44.9841 0.582406 36.6526 12.9435 37.6355C20.5723 39.5267 18.3269 31.8933 12.656 31.4033C8.42926 31.2008 -1.28777 28.0643 2.20526 20.1854C5.56115 15.1308 13.6146 14.8053 17.4501 23.0618C18.8385 24.9967 21.2724 28.1096 25.6955 25.3629C27.3001 22.9867 26.2491 19.0081 21.6686 16.1583L21.6686 16.1563Z" fill="white"/>
</svg>
