<svg width="64" height="64" viewBox="0 0 64 64" fill="none" xmlns="http://www.w3.org/2000/svg">
<path fill-rule="evenodd" clip-rule="evenodd" d="M29.01 10.0205C32.5299 10.0157 35.9818 10.99 38.9796 12.8346C41.9775 14.6793 44.4031 17.3214 45.9853 20.4657C47.5675 23.6099 48.2439 27.1323 47.9389 30.639C47.6338 34.1456 46.3594 37.4983 44.258 40.3221L54.5151 48.9978C54.9265 49.349 55.2609 49.7814 55.4971 50.268C55.7333 50.7547 55.8663 51.2849 55.8876 51.8254C55.9089 52.3659 55.8182 52.9049 55.6211 53.4087C55.424 53.9124 55.1248 54.3699 54.7423 54.7524C54.3599 55.1349 53.9024 55.4341 53.3986 55.6311C52.8949 55.8282 52.3559 55.919 51.8154 55.8976C51.2749 55.8763 50.7446 55.7433 50.258 55.5071C49.7714 55.2709 49.3389 54.9366 48.9878 54.5251L40.31 44.2696C37.8958 46.0589 35.0914 47.2498 32.1274 47.7444C29.1634 48.2389 26.1243 48.0231 23.2599 47.1145C20.3955 46.206 17.7876 44.6307 15.6506 42.5181C13.5135 40.4056 11.9082 37.816 10.9667 34.9624C10.0251 32.1087 9.7742 29.0723 10.2345 26.1027C10.6948 23.1332 11.8533 20.3153 13.6146 17.8806C15.3759 15.4458 17.6898 13.4638 20.3662 12.0974C23.0426 10.731 26.005 10.0192 29.01 10.0205ZM29.01 44.0205C31.9767 44.0205 34.8768 43.1408 37.3435 41.4926C39.8103 39.8443 41.7329 37.5017 42.8682 34.7608C44.0035 32.0199 44.3006 29.0039 43.7218 26.0942C43.143 23.1845 41.7144 20.5117 39.6166 18.4139C37.5188 16.3161 34.8461 14.8875 31.9364 14.3087C29.0266 13.73 26.0106 14.027 23.2697 15.1623C20.5289 16.2976 18.1862 18.2202 16.538 20.687C14.8897 23.1537 14.01 26.0538 14.01 29.0205C14.01 32.9988 15.5904 36.814 18.4034 39.6271C21.2165 42.4401 25.0318 44.0204 29.01 44.0204V44.0205Z" fill="white"/>
</svg>
